<?xml version="1.0" encoding="utf-8"?>
<!-- Generator: Adobe Illustrator 26.0.1, SVG Export Plug-In . SVG Version: 6.00 Build 0)  -->
<svg version="1.1" id="Layer_1" xmlns="http://www.w3.org/2000/svg" xmlns:xlink="http://www.w3.org/1999/xlink" x="0px" y="0px"
	 viewBox="0 0 1080 1080" style="enable-background:new 0 0 1080 1080;" xml:space="preserve">
<style type="text/css">
	.st0{fill:#F9CADC;}
	.st1{fill:#FFFFFF;}
	.st2{fill:#EFA18F;}
	.st3{fill:#E59689;}
	.st4{fill:#4F3535;}
	.st5{fill:#F7AD97;}
	.st6{fill:#F49DC0;}
	.st7{fill:#C2C2C4;}
	.st8{fill:#A8A8A8;}
</style>
<circle class="st0" cx="541.47" cy="540.08" r="421.8"/>
<g>
	<path class="st1" d="M805.57,867.48v0.01c-10,8.13-20.37,15.81-31.1,23.01c-66.88,44.92-147.35,71.19-233.94,71.38h-0.92
		c-86.94,0-167.74-26.3-234.86-71.38c-10.73-7.2-21.1-14.88-31.1-23.01v-0.01c7.28-29.42,17.47-55.02,31.26-68.81
		c40.13-40.14,87.09-55.75,142.58-63.96h184.24c55.47,8.21,102.45,23.82,142.58,63.96c6.6,6.6,12.38,15.91,17.4,27.05
		C797.19,837.85,801.78,852.14,805.57,867.48z"/>
</g>
<g>
	<path class="st2" d="M631.73,734.71c0,0-26.09,33.94-92.12,63.18c-66.03-29.24-92.12-63.18-92.12-63.18
		c18.34-11.69,32.59-29.28,40.25-49.23l103.72-0.05C599.12,705.4,613.38,723.01,631.73,734.71z"/>
</g>
<g>
	<path class="st3" d="M599.15,701.18c-36.71,14.53-79.9,11.2-115.36-6.76c1.46-2.92,2.78-5.9,3.95-8.94l103.72-0.05
		C593.55,690.88,596.13,696.16,599.15,701.18z"/>
</g>
<g>
	<path class="st4" d="M370.32,461.12c-2.94-14.06-5.02-28.29-5.79-42.7c-2.34-43.83,8.99-90.35,39.94-121.48
		c38.59-38.84,98.22-46.19,152.95-46.83c19.64-0.23,40.09,0.31,57.6,9.21c17.3,8.81,30.74,28.17,26.73,47.09
		c17.57-3.88,36.59,5.48,47.84,19.8c11.88,15.16,16.54,34.75,18.78,53.88c3.12,26.57,2.13,53.58-2.78,79.86l-12.23,16.88H385.01
		L370.32,461.12z"/>
</g>
<g>
	<path class="st5" d="M724.27,507.5c-1.4,15.99-2.88,32.34-9.53,46.95c-4.13,9.05-10.99,17.78-20.67,20.11
		c-6.32,1.51-13.59-1.04-17.7-5.75c-12.55,44.06-41.35,92.22-84.91,116.62c0,0-19.79,11-51.85,11s-51.87-10.95-51.87-10.95
		c-43.58-24.36-72.41-72.51-84.98-116.56c-4.12,4.65-11.35,7.14-17.61,5.64c-9.68-2.33-16.54-11.06-20.67-20.11
		c-6.65-14.61-8.13-30.96-9.53-46.95c-0.82-9.37-1.62-19,0.92-28.06c2.16-7.72,7.3-15.06,14.45-18.32c0,0,12.91-6.85,30.04,0
		c0,0,0.59-40.26,22.3-63.74c0,0,119.17,40.3,222.18-1.06c0,0,24.45,20.14,30.36,64.8c0,0,11.31-7.42,30.39-1.17
		c8.88,2.27,15.27,10.62,17.76,19.49C725.89,488.5,725.09,498.13,724.27,507.5z"/>
</g>
<path class="st6" d="M963.27,540.08c0,232.95-188.84,421.8-421.8,421.8h-0.94c86.59-0.19,167.06-26.46,233.94-71.38
	c10.73-7.2,21.1-14.88,31.1-23.01v-0.01c-3.79-15.34-8.38-29.63-13.86-41.76c82.66-77,134.35-186.8,134.35-308.68
	c0-143.74-71.89-270.68-181.68-346.83C874.85,241.93,963.27,380.67,963.27,540.08z"/>
<g>
	<path class="st7" d="M805.57,867.48v0.01c-10,8.13-20.37,15.81-31.1,23.01c-66.88,44.92-147.35,71.19-233.94,71.38
		c-88.86-0.19-171.27-27.87-239.18-74.97c60.2,33.1,129.36,51.93,202.91,51.93c111.08,0,212.11-42.93,287.45-113.12
		C797.19,837.85,801.78,852.14,805.57,867.48z"/>
</g>
<path class="st8" d="M539.61,972.88c-58.42,0-115.1-11.44-168.47-34.02c-51.54-21.8-97.82-53-137.57-92.75
	s-70.95-86.03-92.75-137.57c-22.57-53.37-34.02-110.05-34.02-168.47s11.44-115.1,34.02-168.47c21.8-51.54,53-97.82,92.75-137.57
	s86.03-70.95,137.57-92.75c53.36-22.57,110.05-34.02,168.47-34.02s115.1,11.44,168.47,34.02c51.54,21.8,97.82,53,137.57,92.75
	s70.95,86.03,92.75,137.57c22.57,53.36,34.02,110.05,34.02,168.47s-11.44,115.1-34.02,168.47c-21.8,51.54-53,97.82-92.75,137.57
	s-86.03,70.95-137.57,92.75C654.71,961.43,598.03,972.88,539.61,972.88z M539.61,129.28c-55.46,0-109.26,10.86-159.9,32.28
	c-48.92,20.69-92.85,50.31-130.58,88.04c-37.73,37.73-67.35,81.66-88.04,130.58c-21.42,50.64-32.28,104.44-32.28,159.9
	c0,55.46,10.86,109.26,32.28,159.9c20.69,48.92,50.31,92.85,88.04,130.58c37.73,37.73,81.66,67.35,130.58,88.04
	c50.64,21.42,104.44,32.28,159.9,32.28c55.46,0,109.26-10.86,159.9-32.28c48.92-20.69,92.85-50.31,130.58-88.04
	c37.73-37.73,67.35-81.67,88.04-130.58c21.42-50.64,32.28-104.44,32.28-159.9c0-55.46-10.86-109.26-32.28-159.9
	c-20.69-48.92-50.31-92.85-88.04-130.58c-37.73-37.73-81.67-67.35-130.58-88.04C648.87,140.14,595.07,129.28,539.61,129.28z"/>
</svg>
